<svg xmlns="http://www.w3.org/2000/svg" xmlns:xlink="http://www.w3.org/1999/xlink" viewBox="0 0 64 64"><defs><style>.cls-1{fill:url(#linear-gradient);}.cls-2{fill:#4795ea;}.cls-3{fill:#54a5ff;}.cls-4{fill:url(#linear-gradient-2);}.cls-5{fill:#f0f7fc;}.cls-6{fill:#ffb369;}</style><linearGradient id="linear-gradient" x1="8.55" y1="48.45" x2="55.45" y2="1.55" gradientUnits="userSpaceOnUse"><stop offset="0" stop-color="#d3e6f5"/><stop offset="1" stop-color="#f0f7fc"/></linearGradient><linearGradient id="linear-gradient-2" x1="3" y1="41" x2="61" y2="41" gradientUnits="userSpaceOnUse"><stop offset="0" stop-color="#54a5ff"/><stop offset="1" stop-color="#8ad3fe"/></linearGradient></defs><title>Profits</title><g id="Profits"><rect class="cls-1" x="3" y="3" width="58" height="44" rx="7"/><path class="cls-2" d="M42,45.78A1,1,0,0,0,41,45H23a1,1,0,0,0-1,.78l-2,9a1,1,0,0,0,.2.85A1,1,0,0,0,21,56H43a1,1,0,0,0,.78-.37,1,1,0,0,0,.2-.85Z"/><path class="cls-3" d="M43,54H21a6,6,0,0,0-6,6,1,1,0,0,0,1,1H48a1,1,0,0,0,1-1A6,6,0,0,0,43,54Z"/><path class="cls-4" d="M60,35H4a1,1,0,0,0-1,1v4a7,7,0,0,0,7,7H54a7,7,0,0,0,7-7V36A1,1,0,0,0,60,35Z"/><path class="cls-5" d="M33,40H31a1,1,0,0,0,0,2h2a1,1,0,0,0,0-2Z"/><path class="cls-6" d="M32,22a1,1,0,0,0-1,1v8a1,1,0,0,0,2,0V23A1,1,0,0,0,32,22Z"/><path class="cls-6" d="M38,20a1,1,0,0,0-1,1V31a1,1,0,0,0,2,0V21A1,1,0,0,0,38,20Z"/><path class="cls-6" d="M44,18a1,1,0,0,0-1,1V31a1,1,0,0,0,2,0V19A1,1,0,0,0,44,18Z"/><path class="cls-6" d="M26,24a1,1,0,0,0-1,1v6a1,1,0,0,0,2,0V25A1,1,0,0,0,26,24Z"/><path class="cls-6" d="M20,26a1,1,0,0,0-1,1v4a1,1,0,0,0,2,0V27A1,1,0,0,0,20,26Z"/><path class="cls-6" d="M44.92,8.62a.9.9,0,0,0-.54-.54A1,1,0,0,0,44,8H41a1,1,0,0,0,0,2h.59l-.11.1A30.15,30.15,0,0,1,20,19a1,1,0,0,0,0,2,32.2,32.2,0,0,0,22.9-9.48l.1-.11V12a1,1,0,0,0,2,0V9A1,1,0,0,0,44.92,8.62Z"/></g></svg>