<svg xmlns="http://www.w3.org/2000/svg" width="128" height="128" viewBox="0 0 128 128">
  <title>REPORT</title>
  <g>
    <polygon points="37.776 6.307 108.757 6.307 108.757 121.693 19.242 121.693 19.242 24.841 37.776 6.307" fill="#dbedff"/>
    <polygon points="37.776 24.841 19.242 24.841 37.776 6.307 37.776 24.841" fill="#b5dcff"/>
    <rect x="73.899" y="31.314" width="9.899" height="18.474" fill="#f4dd45"/>
    <rect x="44.202" y="36.289" width="9.899" height="13.499" fill="#f87c68"/>
    <rect x="54.101" y="26.34" width="9.899" height="23.449" fill="#7fb3fa"/>
    <rect x="64" y="21.365" width="9.899" height="28.424" fill="#64d465"/>
    <path d="M93.7,79.962H51.374a1.75,1.75,0,0,1,0-3.5H93.7a1.75,1.75,0,0,1,0,3.5Z" fill="#b5dcff"/>
    <path d="M93.7,94.174H51.374a1.75,1.75,0,1,1,0-3.5H93.7a1.75,1.75,0,1,1,0,3.5Z" fill="#b5dcff"/>
    <path d="M93.7,108.385H72.537a1.75,1.75,0,0,1,0-3.5H93.7a1.75,1.75,0,0,1,0,3.5Z" fill="#b5dcff"/>
    <path d="M93.7,65.75H51.374a1.75,1.75,0,1,1,0-3.5H93.7a1.75,1.75,0,0,1,0,3.5Z" fill="#b5dcff"/>
    <path d="M41.252,79.962H34.3a1.75,1.75,0,0,1,0-3.5h6.952a1.75,1.75,0,0,1,0,3.5Z" fill="#b5dcff"/>
    <path d="M41.252,94.174H34.3a1.75,1.75,0,0,1,0-3.5h6.952a1.75,1.75,0,1,1,0,3.5Z" fill="#b5dcff"/>
    <path d="M41.252,65.75H34.3a1.75,1.75,0,0,1,0-3.5h6.952a1.75,1.75,0,1,1,0,3.5Z" fill="#b5dcff"/>
    <path d="M93.7,51.538H34.3a1.75,1.75,0,0,1,0-3.5H93.7a1.75,1.75,0,0,1,0,3.5Z" fill="#b5dcff"/>
  </g>
</svg>
